<mxfile host="app.diagrams.net" agent="Mozilla/5.0 (X11; Ubuntu; Linux x86_64; rv:144.0) Gecko/20100101 Firefox/144.0" version="28.2.8">
  <diagram name="P치gina-1" id="TizYcHpgxzE9ANQEfFX4">
    <mxGraphModel dx="1236" dy="724" grid="1" gridSize="10" guides="1" tooltips="1" connect="1" arrows="1" fold="1" page="1" pageScale="1" pageWidth="827" pageHeight="1169" math="0" shadow="0">
      <root>
        <mxCell id="0" />
        <mxCell id="1" parent="0" />
        <mxCell id="aFWC-6pnRCuzpnIg-58M-1" value="Empleado" style="rounded=1;whiteSpace=wrap;html=1;" vertex="1" parent="1">
          <mxGeometry x="600" y="520" width="120" height="60" as="geometry" />
        </mxCell>
        <mxCell id="aFWC-6pnRCuzpnIg-58M-20" style="edgeStyle=orthogonalEdgeStyle;rounded=0;orthogonalLoop=1;jettySize=auto;html=1;exitX=0.5;exitY=1;exitDx=0;exitDy=0;entryX=0.5;entryY=0;entryDx=0;entryDy=0;" edge="1" parent="1" source="aFWC-6pnRCuzpnIg-58M-3" target="aFWC-6pnRCuzpnIg-58M-13">
          <mxGeometry relative="1" as="geometry" />
        </mxCell>
        <mxCell id="aFWC-6pnRCuzpnIg-58M-27" style="edgeStyle=orthogonalEdgeStyle;rounded=0;orthogonalLoop=1;jettySize=auto;html=1;exitX=1;exitY=0.5;exitDx=0;exitDy=0;entryX=0;entryY=0.5;entryDx=0;entryDy=0;" edge="1" parent="1" source="aFWC-6pnRCuzpnIg-58M-3" target="aFWC-6pnRCuzpnIg-58M-6">
          <mxGeometry relative="1" as="geometry" />
        </mxCell>
        <mxCell id="aFWC-6pnRCuzpnIg-58M-3" value="Curso" style="rounded=1;whiteSpace=wrap;html=1;" vertex="1" parent="1">
          <mxGeometry x="200" y="230" width="120" height="60" as="geometry" />
        </mxCell>
        <mxCell id="aFWC-6pnRCuzpnIg-58M-26" style="edgeStyle=orthogonalEdgeStyle;rounded=0;orthogonalLoop=1;jettySize=auto;html=1;exitX=0;exitY=0.5;exitDx=0;exitDy=0;entryX=1;entryY=0.5;entryDx=0;entryDy=0;" edge="1" parent="1" source="aFWC-6pnRCuzpnIg-58M-4" target="aFWC-6pnRCuzpnIg-58M-25">
          <mxGeometry relative="1" as="geometry" />
        </mxCell>
        <mxCell id="aFWC-6pnRCuzpnIg-58M-30" style="edgeStyle=orthogonalEdgeStyle;rounded=0;orthogonalLoop=1;jettySize=auto;html=1;exitX=1;exitY=0.25;exitDx=0;exitDy=0;entryX=0;entryY=0.5;entryDx=0;entryDy=0;" edge="1" parent="1" source="aFWC-6pnRCuzpnIg-58M-4" target="aFWC-6pnRCuzpnIg-58M-28">
          <mxGeometry relative="1" as="geometry" />
        </mxCell>
        <mxCell id="aFWC-6pnRCuzpnIg-58M-31" style="edgeStyle=orthogonalEdgeStyle;rounded=0;orthogonalLoop=1;jettySize=auto;html=1;exitX=1;exitY=0.75;exitDx=0;exitDy=0;entryX=0;entryY=0.5;entryDx=0;entryDy=0;" edge="1" parent="1" source="aFWC-6pnRCuzpnIg-58M-4" target="aFWC-6pnRCuzpnIg-58M-29">
          <mxGeometry relative="1" as="geometry" />
        </mxCell>
        <mxCell id="aFWC-6pnRCuzpnIg-58M-4" value="Edici칩n" style="shape=ext;margin=3;double=1;whiteSpace=wrap;html=1;align=center;" vertex="1" parent="1">
          <mxGeometry x="205" y="520" width="110" height="50" as="geometry" />
        </mxCell>
        <mxCell id="aFWC-6pnRCuzpnIg-58M-6" value="Descripci칩n" style="ellipse;whiteSpace=wrap;html=1;" vertex="1" parent="1">
          <mxGeometry x="360" y="60" width="80" height="80" as="geometry" />
        </mxCell>
        <mxCell id="aFWC-6pnRCuzpnIg-58M-7" value="Duraci칩n" style="ellipse;whiteSpace=wrap;html=1;" vertex="1" parent="1">
          <mxGeometry x="240" y="50" width="80" height="80" as="geometry" />
        </mxCell>
        <mxCell id="aFWC-6pnRCuzpnIg-58M-8" value="Nombre" style="ellipse;whiteSpace=wrap;html=1;" vertex="1" parent="1">
          <mxGeometry x="110" y="50" width="100" height="80" as="geometry" />
        </mxCell>
        <mxCell id="aFWC-6pnRCuzpnIg-58M-9" value="&lt;u&gt;Cod. Curso&lt;/u&gt;" style="ellipse;whiteSpace=wrap;html=1;" vertex="1" parent="1">
          <mxGeometry x="10" y="70" width="90" height="80" as="geometry" />
        </mxCell>
        <mxCell id="aFWC-6pnRCuzpnIg-58M-21" style="edgeStyle=orthogonalEdgeStyle;rounded=0;orthogonalLoop=1;jettySize=auto;html=1;exitX=0.5;exitY=1;exitDx=0;exitDy=0;" edge="1" parent="1" source="aFWC-6pnRCuzpnIg-58M-11" target="aFWC-6pnRCuzpnIg-58M-4">
          <mxGeometry relative="1" as="geometry" />
        </mxCell>
        <mxCell id="aFWC-6pnRCuzpnIg-58M-11" value="&lt;div&gt;tiene&lt;/div&gt;" style="rhombus;whiteSpace=wrap;html=1;" vertex="1" parent="1">
          <mxGeometry x="220" y="360" width="80" height="80" as="geometry" />
        </mxCell>
        <mxCell id="aFWC-6pnRCuzpnIg-58M-12" value="" style="endArrow=none;html=1;rounded=0;entryX=0.042;entryY=0.954;entryDx=0;entryDy=0;entryPerimeter=0;exitX=0.964;exitY=0.947;exitDx=0;exitDy=0;exitPerimeter=0;" edge="1" parent="1" source="aFWC-6pnRCuzpnIg-58M-13" target="aFWC-6pnRCuzpnIg-58M-13">
          <mxGeometry width="50" height="50" relative="1" as="geometry">
            <mxPoint x="200" y="400" as="sourcePoint" />
            <mxPoint x="250" y="350" as="targetPoint" />
          </mxGeometry>
        </mxCell>
        <mxCell id="aFWC-6pnRCuzpnIg-58M-13" value="id" style="text;html=1;whiteSpace=wrap;strokeColor=none;fillColor=none;align=center;verticalAlign=middle;rounded=0;" vertex="1" parent="1">
          <mxGeometry x="230" y="360" width="60" height="30" as="geometry" />
        </mxCell>
        <mxCell id="aFWC-6pnRCuzpnIg-58M-14" style="edgeStyle=orthogonalEdgeStyle;rounded=0;orthogonalLoop=1;jettySize=auto;html=1;exitX=0;exitY=0;exitDx=0;exitDy=0;entryX=0.587;entryY=1.001;entryDx=0;entryDy=0;entryPerimeter=0;" edge="1" parent="1" source="aFWC-6pnRCuzpnIg-58M-3" target="aFWC-6pnRCuzpnIg-58M-9">
          <mxGeometry relative="1" as="geometry" />
        </mxCell>
        <mxCell id="aFWC-6pnRCuzpnIg-58M-16" style="edgeStyle=orthogonalEdgeStyle;rounded=0;orthogonalLoop=1;jettySize=auto;html=1;exitX=1;exitY=0;exitDx=0;exitDy=0;entryX=0.087;entryY=0.766;entryDx=0;entryDy=0;entryPerimeter=0;" edge="1" parent="1" source="aFWC-6pnRCuzpnIg-58M-3" target="aFWC-6pnRCuzpnIg-58M-7">
          <mxGeometry relative="1" as="geometry" />
        </mxCell>
        <mxCell id="aFWC-6pnRCuzpnIg-58M-19" style="edgeStyle=orthogonalEdgeStyle;rounded=0;orthogonalLoop=1;jettySize=auto;html=1;exitX=0.5;exitY=0;exitDx=0;exitDy=0;entryX=0.434;entryY=1.046;entryDx=0;entryDy=0;entryPerimeter=0;" edge="1" parent="1" source="aFWC-6pnRCuzpnIg-58M-3" target="aFWC-6pnRCuzpnIg-58M-8">
          <mxGeometry relative="1" as="geometry" />
        </mxCell>
        <mxCell id="aFWC-6pnRCuzpnIg-58M-22" value="Horario" style="ellipse;whiteSpace=wrap;html=1;" vertex="1" parent="1">
          <mxGeometry x="245" y="650" width="100" height="80" as="geometry" />
        </mxCell>
        <mxCell id="aFWC-6pnRCuzpnIg-58M-23" value="Lugar" style="ellipse;whiteSpace=wrap;html=1;" vertex="1" parent="1">
          <mxGeometry x="145" y="670" width="100" height="80" as="geometry" />
        </mxCell>
        <mxCell id="aFWC-6pnRCuzpnIg-58M-24" value="&lt;u&gt;Cod. Curso&lt;/u&gt;" style="ellipse;whiteSpace=wrap;html=1;" vertex="1" parent="1">
          <mxGeometry x="70" y="600" width="100" height="80" as="geometry" />
        </mxCell>
        <mxCell id="aFWC-6pnRCuzpnIg-58M-25" value="&lt;u&gt;Fecha Inicio&lt;/u&gt;" style="ellipse;whiteSpace=wrap;html=1;" vertex="1" parent="1">
          <mxGeometry x="5" y="502.5" width="100" height="85" as="geometry" />
        </mxCell>
        <mxCell id="aFWC-6pnRCuzpnIg-58M-32" style="edgeStyle=orthogonalEdgeStyle;rounded=0;orthogonalLoop=1;jettySize=auto;html=1;exitX=1;exitY=0.5;exitDx=0;exitDy=0;entryX=0;entryY=0.25;entryDx=0;entryDy=0;" edge="1" parent="1" source="aFWC-6pnRCuzpnIg-58M-28" target="aFWC-6pnRCuzpnIg-58M-1">
          <mxGeometry relative="1" as="geometry" />
        </mxCell>
        <mxCell id="aFWC-6pnRCuzpnIg-58M-28" value="Imparte" style="rhombus;whiteSpace=wrap;html=1;" vertex="1" parent="1">
          <mxGeometry x="423" y="410" width="80" height="80" as="geometry" />
        </mxCell>
        <mxCell id="aFWC-6pnRCuzpnIg-58M-33" style="edgeStyle=orthogonalEdgeStyle;rounded=0;orthogonalLoop=1;jettySize=auto;html=1;exitX=1;exitY=0.5;exitDx=0;exitDy=0;entryX=0;entryY=0.75;entryDx=0;entryDy=0;" edge="1" parent="1" source="aFWC-6pnRCuzpnIg-58M-29" target="aFWC-6pnRCuzpnIg-58M-1">
          <mxGeometry relative="1" as="geometry" />
        </mxCell>
        <mxCell id="aFWC-6pnRCuzpnIg-58M-29" value="Recibe" style="rhombus;whiteSpace=wrap;html=1;" vertex="1" parent="1">
          <mxGeometry x="423" y="600" width="80" height="80" as="geometry" />
        </mxCell>
        <mxCell id="aFWC-6pnRCuzpnIg-58M-37" value="" style="endArrow=none;html=1;rounded=0;" edge="1" parent="1">
          <mxGeometry width="50" height="50" relative="1" as="geometry">
            <mxPoint x="120" y="310" as="sourcePoint" />
            <mxPoint x="260" y="310" as="targetPoint" />
          </mxGeometry>
        </mxCell>
        <mxCell id="aFWC-6pnRCuzpnIg-58M-38" value="" style="endArrow=none;html=1;rounded=0;" edge="1" parent="1" source="aFWC-6pnRCuzpnIg-58M-24">
          <mxGeometry width="50" height="50" relative="1" as="geometry">
            <mxPoint x="440" y="500" as="sourcePoint" />
            <mxPoint x="120" y="310" as="targetPoint" />
          </mxGeometry>
        </mxCell>
        <mxCell id="aFWC-6pnRCuzpnIg-58M-39" value="Apellido" style="ellipse;whiteSpace=wrap;html=1;" vertex="1" parent="1">
          <mxGeometry x="780" y="370" width="100" height="80" as="geometry" />
        </mxCell>
        <mxCell id="aFWC-6pnRCuzpnIg-58M-40" value="Nombre" style="ellipse;whiteSpace=wrap;html=1;" vertex="1" parent="1">
          <mxGeometry x="690" y="340" width="90" height="80" as="geometry" />
        </mxCell>
        <mxCell id="aFWC-6pnRCuzpnIg-58M-41" value="NIF" style="ellipse;whiteSpace=wrap;html=1;" vertex="1" parent="1">
          <mxGeometry x="610" y="300" width="90" height="80" as="geometry" />
        </mxCell>
        <mxCell id="aFWC-6pnRCuzpnIg-58M-42" value="&lt;u&gt;Cod. Empleado&lt;/u&gt;" style="ellipse;whiteSpace=wrap;html=1;" vertex="1" parent="1">
          <mxGeometry x="520" y="345" width="100" height="85" as="geometry" />
        </mxCell>
        <mxCell id="aFWC-6pnRCuzpnIg-58M-44" value="Direcci칩n" style="ellipse;whiteSpace=wrap;html=1;" vertex="1" parent="1">
          <mxGeometry x="800" y="470" width="120" height="80" as="geometry" />
        </mxCell>
        <mxCell id="aFWC-6pnRCuzpnIg-58M-45" value="Tel칠fono" style="ellipse;whiteSpace=wrap;html=1;" vertex="1" parent="1">
          <mxGeometry x="790" y="570" width="120" height="80" as="geometry" />
        </mxCell>
        <mxCell id="aFWC-6pnRCuzpnIg-58M-47" value="Sueldo" style="ellipse;whiteSpace=wrap;html=1;" vertex="1" parent="1">
          <mxGeometry x="690" y="650" width="120" height="80" as="geometry" />
        </mxCell>
        <mxCell id="aFWC-6pnRCuzpnIg-58M-48" value="Capacitado" style="ellipse;whiteSpace=wrap;html=1;" vertex="1" parent="1">
          <mxGeometry x="550" y="660" width="120" height="80" as="geometry" />
        </mxCell>
        <mxCell id="aFWC-6pnRCuzpnIg-58M-49" value="" style="endArrow=none;html=1;rounded=0;entryX=0.092;entryY=0.051;entryDx=0;entryDy=0;entryPerimeter=0;exitX=0.5;exitY=1;exitDx=0;exitDy=0;" edge="1" parent="1" source="aFWC-6pnRCuzpnIg-58M-42" target="aFWC-6pnRCuzpnIg-58M-1">
          <mxGeometry width="50" height="50" relative="1" as="geometry">
            <mxPoint x="440" y="500" as="sourcePoint" />
            <mxPoint x="490" y="450" as="targetPoint" />
          </mxGeometry>
        </mxCell>
        <mxCell id="aFWC-6pnRCuzpnIg-58M-50" value="" style="endArrow=none;html=1;rounded=0;entryX=0.5;entryY=1;entryDx=0;entryDy=0;exitX=0.318;exitY=-0.008;exitDx=0;exitDy=0;exitPerimeter=0;" edge="1" parent="1" source="aFWC-6pnRCuzpnIg-58M-1" target="aFWC-6pnRCuzpnIg-58M-41">
          <mxGeometry width="50" height="50" relative="1" as="geometry">
            <mxPoint x="440" y="500" as="sourcePoint" />
            <mxPoint x="490" y="450" as="targetPoint" />
          </mxGeometry>
        </mxCell>
        <mxCell id="aFWC-6pnRCuzpnIg-58M-51" value="" style="endArrow=none;html=1;rounded=0;entryX=0.5;entryY=1;entryDx=0;entryDy=0;exitX=0.5;exitY=0;exitDx=0;exitDy=0;" edge="1" parent="1" source="aFWC-6pnRCuzpnIg-58M-1" target="aFWC-6pnRCuzpnIg-58M-40">
          <mxGeometry width="50" height="50" relative="1" as="geometry">
            <mxPoint x="440" y="500" as="sourcePoint" />
            <mxPoint x="490" y="450" as="targetPoint" />
          </mxGeometry>
        </mxCell>
        <mxCell id="aFWC-6pnRCuzpnIg-58M-52" value="" style="endArrow=none;html=1;rounded=0;entryX=1;entryY=0;entryDx=0;entryDy=0;exitX=0;exitY=1;exitDx=0;exitDy=0;" edge="1" parent="1" source="aFWC-6pnRCuzpnIg-58M-39" target="aFWC-6pnRCuzpnIg-58M-1">
          <mxGeometry width="50" height="50" relative="1" as="geometry">
            <mxPoint x="440" y="500" as="sourcePoint" />
            <mxPoint x="490" y="450" as="targetPoint" />
          </mxGeometry>
        </mxCell>
        <mxCell id="aFWC-6pnRCuzpnIg-58M-53" value="" style="endArrow=none;html=1;rounded=0;entryX=1;entryY=0.5;entryDx=0;entryDy=0;exitX=-0.006;exitY=0.634;exitDx=0;exitDy=0;exitPerimeter=0;" edge="1" parent="1" source="aFWC-6pnRCuzpnIg-58M-44" target="aFWC-6pnRCuzpnIg-58M-1">
          <mxGeometry width="50" height="50" relative="1" as="geometry">
            <mxPoint x="440" y="500" as="sourcePoint" />
            <mxPoint x="490" y="450" as="targetPoint" />
          </mxGeometry>
        </mxCell>
        <mxCell id="aFWC-6pnRCuzpnIg-58M-54" value="" style="endArrow=none;html=1;rounded=0;entryX=1;entryY=1;entryDx=0;entryDy=0;exitX=-0.001;exitY=0.399;exitDx=0;exitDy=0;exitPerimeter=0;" edge="1" parent="1" source="aFWC-6pnRCuzpnIg-58M-45" target="aFWC-6pnRCuzpnIg-58M-1">
          <mxGeometry width="50" height="50" relative="1" as="geometry">
            <mxPoint x="440" y="500" as="sourcePoint" />
            <mxPoint x="490" y="450" as="targetPoint" />
          </mxGeometry>
        </mxCell>
        <mxCell id="aFWC-6pnRCuzpnIg-58M-55" value="" style="endArrow=none;html=1;rounded=0;entryX=0.75;entryY=1;entryDx=0;entryDy=0;exitX=0.391;exitY=0.001;exitDx=0;exitDy=0;exitPerimeter=0;" edge="1" parent="1" source="aFWC-6pnRCuzpnIg-58M-47" target="aFWC-6pnRCuzpnIg-58M-1">
          <mxGeometry width="50" height="50" relative="1" as="geometry">
            <mxPoint x="440" y="500" as="sourcePoint" />
            <mxPoint x="490" y="450" as="targetPoint" />
          </mxGeometry>
        </mxCell>
        <mxCell id="aFWC-6pnRCuzpnIg-58M-56" value="" style="endArrow=none;html=1;rounded=0;entryX=0.25;entryY=1;entryDx=0;entryDy=0;exitX=0.5;exitY=0;exitDx=0;exitDy=0;" edge="1" parent="1" source="aFWC-6pnRCuzpnIg-58M-48" target="aFWC-6pnRCuzpnIg-58M-1">
          <mxGeometry width="50" height="50" relative="1" as="geometry">
            <mxPoint x="440" y="500" as="sourcePoint" />
            <mxPoint x="490" y="450" as="targetPoint" />
          </mxGeometry>
        </mxCell>
        <mxCell id="aFWC-6pnRCuzpnIg-58M-57" value="(1.1)" style="text;html=1;whiteSpace=wrap;strokeColor=none;fillColor=none;align=center;verticalAlign=middle;rounded=0;" vertex="1" parent="1">
          <mxGeometry x="540" y="505" width="60" height="30" as="geometry" />
        </mxCell>
        <mxCell id="aFWC-6pnRCuzpnIg-58M-58" value="1.N" style="text;html=1;whiteSpace=wrap;strokeColor=none;fillColor=none;align=center;verticalAlign=middle;rounded=0;" vertex="1" parent="1">
          <mxGeometry x="540" y="570" width="60" height="30" as="geometry" />
        </mxCell>
        <mxCell id="aFWC-6pnRCuzpnIg-58M-59" value="1.N" style="text;html=1;whiteSpace=wrap;strokeColor=none;fillColor=none;align=center;verticalAlign=middle;rounded=0;" vertex="1" parent="1">
          <mxGeometry x="430" y="370" width="60" height="30" as="geometry" />
        </mxCell>
        <mxCell id="aFWC-6pnRCuzpnIg-58M-60" value="&lt;div&gt;N.M&lt;/div&gt;" style="text;html=1;whiteSpace=wrap;strokeColor=none;fillColor=none;align=center;verticalAlign=middle;rounded=0;" vertex="1" parent="1">
          <mxGeometry x="430" y="695" width="60" height="30" as="geometry" />
        </mxCell>
        <mxCell id="aFWC-6pnRCuzpnIg-58M-61" value="1.N" style="text;html=1;whiteSpace=wrap;strokeColor=none;fillColor=none;align=center;verticalAlign=middle;rounded=0;" vertex="1" parent="1">
          <mxGeometry x="280" y="380" width="60" height="30" as="geometry" />
        </mxCell>
        <mxCell id="aFWC-6pnRCuzpnIg-58M-62" value="0.N" style="text;html=1;whiteSpace=wrap;strokeColor=none;fillColor=none;align=center;verticalAlign=middle;rounded=0;" vertex="1" parent="1">
          <mxGeometry x="310" y="500" width="60" height="30" as="geometry" />
        </mxCell>
        <mxCell id="aFWC-6pnRCuzpnIg-58M-63" value="0.N" style="text;html=1;whiteSpace=wrap;strokeColor=none;fillColor=none;align=center;verticalAlign=middle;rounded=0;" vertex="1" parent="1">
          <mxGeometry x="310" y="555" width="60" height="30" as="geometry" />
        </mxCell>
        <mxCell id="aFWC-6pnRCuzpnIg-58M-64" value="(1.N)" style="text;html=1;whiteSpace=wrap;strokeColor=none;fillColor=none;align=center;verticalAlign=middle;rounded=0;" vertex="1" parent="1">
          <mxGeometry x="250" y="480" width="60" height="30" as="geometry" />
        </mxCell>
        <mxCell id="aFWC-6pnRCuzpnIg-58M-65" value="(1.1)" style="text;html=1;whiteSpace=wrap;strokeColor=none;fillColor=none;align=center;verticalAlign=middle;rounded=0;" vertex="1" parent="1">
          <mxGeometry x="250" y="300" width="60" height="30" as="geometry" />
        </mxCell>
        <mxCell id="aFWC-6pnRCuzpnIg-58M-66" value="" style="endArrow=none;dashed=1;html=1;dashPattern=1 3;strokeWidth=2;rounded=0;exitX=0.5;exitY=0;exitDx=0;exitDy=0;entryX=0.5;entryY=1;entryDx=0;entryDy=0;" edge="1" parent="1" source="aFWC-6pnRCuzpnIg-58M-29" target="aFWC-6pnRCuzpnIg-58M-28">
          <mxGeometry width="50" height="50" relative="1" as="geometry">
            <mxPoint x="440" y="500" as="sourcePoint" />
            <mxPoint x="490" y="450" as="targetPoint" />
          </mxGeometry>
        </mxCell>
      </root>
    </mxGraphModel>
  </diagram>
</mxfile>
